<svg version="1.1" id="Layer_1" xmlns="http://www.w3.org/2000/svg" xmlns:xlink="http://www.w3.org/1999/xlink" x="0px" y="0px"
	 viewBox="0 0 500 500" style="enable-background:new 0 0 500 500;" xml:space="preserve">
<g id="XMLID_834_">
	<path id="XMLID_835_" class="st0" d="M131.8,266.3h54.8v225.6c0,4.5,3.6,8.1,8.1,8.1h92.9c4.5,0,8.1-3.6,8.1-8.1V267.4h63
		c4.1,0,7.5-3.1,8-7.1l9.6-83.1c0.3-2.3-0.5-4.6-2-6.3s-3.7-2.7-6-2.7h-72.6v-52.1c0-15.7,8.5-23.7,25.1-23.7c2.4,0,47.5,0,47.5,0
		c4.5,0,8.1-3.6,8.1-8.1V8.1c0-4.5-3.6-8.1-8.1-8.1h-65.4c-0.5,0-1.5-0.1-3-0.1c-11.3,0-50.8,2.2-81.9,30.9
		c-34.5,31.8-29.7,69.8-28.6,76.4v60.9h-57.5c-4.5,0-8.1,3.6-8.1,8.1v82C123.7,262.7,127.3,266.3,131.8,266.3z"/>
</g>
</svg>
