<svg version="1.1" id="Capa_1" xmlns="http://www.w3.org/2000/svg" xmlns:xlink="http://www.w3.org/1999/xlink" x="0px" y="0px"
	 viewBox="0 0 512 512" style="enable-background:new 0 0 512 512;" xml:space="preserve">
<g>
	<g>
		<path class="st0" d="M511.8,167.2c-1.7-36.1-16.2-70.3-40.9-96.4c-25.6-27-59.3-42-94.8-42.3c-34-0.3-63.9,12.1-89,36.9
			c-14.3,14.1-24.7,30.1-32.1,44.1c-7.4-14-17.8-30-32.1-44.1c-25-24.8-55-37.2-89-36.9C98.4,28.8,65,43.9,40,70.9
			C16,96.8,1.9,131,0.2,167.2c-4.5,94.6,70,158.1,182.8,254.2c19.8,16.9,40.3,34.4,62.1,53.4l9.9,8.6l9.9-8.6
			c23.1-20.2,44.8-38.6,65.8-56.4C442.4,323.5,516.2,260.9,511.8,167.2z"/>
	</g>
</g>
</svg>
