
<svg version="1.1" id="Слой_1" xmlns="http://www.w3.org/2000/svg" xmlns:xlink="http://www.w3.org/1999/xlink" x="0px" y="0px"
	 viewBox="0 0 494.6 28.9" style="enable-background:new 0 0 494.6 28.9;" xml:space="preserve" fill='#ffffff'>
<g id="Слой_2_1_">
	<g id="Слой_1-2">
		<polygon points="66.1,28.1 60.6,28.1 60.6,5.7 47,24.2 33.3,5.3 33.3,28.1 28,28.1 28,0.9 35.9,0.9 47,16.3 58.1,0.9 66.1,0.9 		
			"/>
		<path d="M107.4,28.1h-5.8l-3.1-5.8H80.2l-3.1,5.8h-5.8L86.1,0.9h6.6L107.4,28.1z M95.8,17.5l-6.4-12l-6.5,12H95.8z"/>
		<path d="M144.6,28.1h-6.1l-7.1-10h-13.5v10h-5.3V0.9h21.9c2.5-0.1,5,0.7,6.9,2.3c1.7,1.6,2.7,3.9,2.6,6.3c0,4.5-2.3,7.2-6.8,8.2
			L144.6,28.1z M133.8,13.3c3.2,0,4.8-1.2,4.8-3.7c0-2.6-1.7-3.9-5.1-3.9h-15.5v7.6L133.8,13.3z"/>
		<polygon points="184.9,28.1 178.1,28.1 165.1,14.3 157.4,19.9 157.4,28.1 152.1,28.1 152.1,0.9 157.4,0.9 157.4,14.2 175.9,0.9 
			183.8,0.9 169.2,11.3 		"/>
		<polygon points="231,5.7 208.1,5.7 208.1,11.6 224.1,11.6 224.1,16.3 208.1,16.3 208.1,28.1 202.8,28.1 202.8,0.9 231,0.9 		"/>
		<path d="M270.9,14.4c0.1,4.3-2.1,8.4-5.7,10.9c-3.6,2.5-7.8,3.7-12.2,3.6c-4.3,0.2-8.6-1.1-12.2-3.6c-3.6-2.4-5.8-6.5-5.7-10.9
			c0-4.3,2.1-8.4,5.7-10.8c7.3-4.9,16.9-4.9,24.2,0C268.7,6,270.9,10.1,270.9,14.4 M265.3,14.4c0-2.7-1.2-5.3-3.5-6.9
			c-5.4-3.6-12.5-3.6-17.9,0c-2.2,1.6-3.5,4.2-3.5,6.9c-0.1,2.7,1.2,5.4,3.4,7c2.6,1.9,5.8,2.8,9,2.7c3.2,0.2,6.4-0.8,9-2.7
			C264.1,19.8,265.4,17.2,265.3,14.4"/>
		<path d="M310.5,28.1h-6.1l-7.1-10h-13.5v10h-5.3V0.9h21.9c2.5-0.1,5,0.7,6.9,2.3c1.7,1.6,2.7,3.9,2.6,6.3c0,4.5-2.3,7.3-6.8,8.3
			L310.5,28.1z M299.6,13.3c3.2,0,4.8-1.2,4.8-3.7c0-2.6-1.7-3.9-5.1-3.9h-15.5v7.6L299.6,13.3z"/>
		<polygon points="356.1,28.1 350.6,28.1 350.6,5.7 337,24.2 323.3,5.4 323.3,28.1 318,28.1 318,0.9 325.9,0.9 337,16.3 348.1,0.9 
			356.1,0.9 		"/>
		<polygon points="394.6,28.1 365.3,28.1 365.3,0.9 393.5,0.9 393.5,5.7 370.6,5.7 370.6,11.6 386.6,11.6 386.6,16.3 370.6,16.3 
			370.6,23.3 394.6,23.3 		"/>
		<polygon points="427.7,28.1 401.4,28.1 401.4,0.9 406.7,0.9 406.7,23.3 427.7,23.3 		"/>
		<polygon points="459.7,28.1 433.4,28.1 433.4,0.9 438.7,0.9 438.7,23.3 459.7,23.3 		"/>
		<polygon points="494.6,28.1 465.4,28.1 465.4,0.9 493.6,0.9 493.6,5.7 470.7,5.7 470.7,11.6 486.6,11.6 486.6,16.3 470.7,16.3 
			470.7,23.3 494.6,23.3 		"/>
		<rect x="10.3" y="0.9" width="2.3" height="27.1"/>
		<rect x="13.8" y="0.9" width="2.4" height="27.1"/>
		<rect x="3.2" y="0.9" width="2.3" height="27.1"/>
		<rect x="6.8" y="0.9" width="2.4" height="27.1"/>
		<rect x="20.9" y="0.9" width="2.4" height="27.1"/>
		<rect y="0.9" width="2" height="27.1"/>
		<rect x="17.4" y="0.9" width="2.4" height="27.1"/>
		<rect x="24.4" y="0.9" width="2.4" height="27.1"/>
	</g>
</g>
</svg>
