<svg version="1.1" id="Слой_1" xmlns="http://www.w3.org/2000/svg" xmlns:xlink="http://www.w3.org/1999/xlink" x="0px" y="0px"
	 viewBox="0 0 1920 1080" style="enable-background:new 0 0 1920 1080;" xml:space="preserve" fill='#fff'>
<g>
	<g>
		<polygon points="1001.8,575.5 987.8,575.5 987.8,518 952.8,565.6 917.5,517 917.5,575.5 903.9,575.5 903.9,505.7 924.3,505.7 
			952.8,545.2 981.3,505.7 1001.8,505.7 		"/>
		<polygon points="1086.9,517.9 1028,517.9 1028,533 1069,533 1069,545.3 1028,545.3 1028,575.5 1014.4,575.5 1014.4,505.7 
			1086.9,505.7 		"/>
		<rect x="858" y="505.7" width="6" height="69.8"/>
		<rect x="867.1" y="505.7" width="6.1" height="69.8"/>
		<rect x="839.8" y="505.7" width="6.1" height="69.8"/>
		<rect x="848.9" y="505.7" width="6.1" height="69.8"/>
		<rect x="885.3" y="505.7" width="6" height="69.8"/>
		<rect x="831.5" y="505.7" width="5.2" height="69.8"/>
		<rect x="876.2" y="505.7" width="6" height="69.8"/>
		<rect x="894.4" y="505.7" width="6.1" height="69.8"/>
	</g>
</g>
</svg>
