<?xml version="1.0" encoding="utf-8"?>
<!-- Generator: Adobe Illustrator 22.0.1, SVG Export Plug-In . SVG Version: 6.00 Build 0)  -->
<svg version="1.1" id="Слой_1" xmlns="http://www.w3.org/2000/svg" xmlns:xlink="http://www.w3.org/1999/xlink" x="0px" y="0px"
	 viewBox="0 0 255.7 70" style="enable-background:new 0 0 255.7 70;" xml:space="preserve">
<style type="text/css">
	.st0{fill:#FFFFFF;}
</style>
<g>
	<g>
		<polygon class="st0" points="170.7,70.2 156.7,70.2 156.7,12.7 121.7,60.3 86.4,11.7 86.4,70.2 72.8,70.2 72.8,0.4 93.2,0.4 
			121.7,39.9 150.2,0.4 170.7,0.4 		"/>
		<polygon class="st0" points="255.8,12.6 196.9,12.6 196.9,27.7 237.9,27.7 237.9,40 196.9,40 196.9,70.2 183.3,70.2 183.3,0.4 
			255.8,0.4 		"/>
		<rect x="26.9" y="0.4" class="st0" width="6" height="69.8"/>
		<rect x="36" y="0.4" class="st0" width="6.1" height="69.8"/>
		<rect x="8.7" y="0.4" class="st0" width="6.1" height="69.8"/>
		<rect x="17.8" y="0.4" class="st0" width="6.1" height="69.8"/>
		<rect x="54.2" y="0.4" class="st0" width="6" height="69.8"/>
		<rect x="0.4" y="0.4" class="st0" width="5.2" height="69.8"/>
		<rect x="45.1" y="0.4" class="st0" width="6" height="69.8"/>
		<rect x="63.3" y="0.4" class="st0" width="6.1" height="69.8"/>
	</g>
</g>
</svg>
