<svg version="1.1" id="Capa_1" xmlns="http://www.w3.org/2000/svg" xmlns:xlink="http://www.w3.org/1999/xlink" x="0px" y="0px"
	 viewBox="0 0 500 500" style="enable-background:new 0 0 500 500;" xml:space="preserve">
<g>
	<g>
		<path class="st0" d="M225.4,352.2c-38.8-4-73.7-13.6-103.6-37c-3.7-2.9-7.5-5.7-10.9-9c-13.1-12.6-14.4-27-4.1-41.8
			c8.9-12.7,23.7-16.1,39.2-8.8c3,1.4,5.8,3.2,8.6,5.1c55.8,38.3,132.4,39.4,188.3,1.7c5.5-4.3,11.5-7.7,18.3-9.5
			c13.4-3.4,25.8,1.5,33,13.2c8.2,13.3,8.1,26.4-2,36.7c-15.5,15.9-34.1,27.4-54.8,35.4c-19.6,7.6-41,11.4-62.2,13.9
			c3.2,3.5,4.7,5.2,6.7,7.2c28.8,28.9,57.7,57.7,86.4,86.7c9.8,9.9,11.8,22.1,6.4,33.6c-5.9,12.6-19.1,20.8-32,20
			c-8.2-0.6-14.6-4.6-20.2-10.4c-21.7-21.9-43.9-43.3-65.1-65.6c-6.2-6.5-9.2-5.3-14.6,0.4c-21.9,22.5-44.1,44.7-66.4,66.7
			c-10,9.9-22,11.7-33.6,6c-12.4-6-20.2-18.6-19.6-31.3c0.4-8.6,4.6-15.1,10.5-21c28.5-28.5,56.9-57,85.3-85.5
			C220.9,357.1,222.7,355.1,225.4,352.2z"/>
		<path class="st0" d="M249,253.1c-69.1-0.2-125.9-57.6-125.4-126.8C124,56.2,180.7-0.2,250.5,0c70,0.2,126.1,57.4,125.8,128.2
			C375.9,197.3,318.9,253.3,249,253.1z M311.8,126.4C311.7,92,284.3,64.7,250,64.6c-34.6,0-62.2,27.8-62,62.5
			c0.3,34.3,27.9,61.4,62.3,61.3C284.6,188.4,312,160.8,311.8,126.4z"/>
	</g>
</g>
</svg>
