<svg version="1.1" id="Capa_1" xmlns="http://www.w3.org/2000/svg" xmlns:xlink="http://www.w3.org/1999/xlink" x="0px" y="0px"
	 viewBox="0 0 500 500" style="enable-background:new 0 0 500 500;" xml:space="preserve">
<g>
	<path class="st0" d="M499.4,94.9c-0.7-0.8-1.9-1.1-2.9-0.7c-14.9,6.6-30.7,11.4-46.9,14.2c17.2-12.9,30-30.8,36.6-51.4
		c0.3-1,0-2.1-0.8-2.7c-0.8-0.6-1.9-0.7-2.8-0.2c-19.4,11.5-40.3,19.6-62.4,24.1c-19.5-20.3-46.8-31.8-75-31.8
		c-57.4,0-104,46.7-104,104c0,6.9,0.7,13.8,2,20.5c-79.5-4.9-153.8-43.1-204.3-105c-0.5-0.6-1.3-1-2.1-0.9s-1.5,0.5-2,1.2
		c-9.2,15.8-14.1,33.9-14.1,52.3c0,31.9,14.5,61.7,39.2,81.4c-12.7-1.5-25.1-5.5-36.3-11.7c-0.8-0.4-1.7-0.4-2.4,0
		c-0.8,0.4-1.2,1.2-1.2,2.1v1.3c0,45.8,30.2,86,73.1,99.4c-11.3,1.8-23,1.7-34.6-0.5c-0.9-0.2-1.7,0.1-2.3,0.8
		c-0.6,0.7-0.8,1.6-0.5,2.4c12.9,40.2,48.7,68.4,90.3,71.9c-34.7,25.5-75.8,38.9-119.2,38.9c-8,0-16-0.5-23.9-1.4
		c-1.1-0.1-2.2,0.5-2.6,1.6s0,2.3,1,2.9c47,30.1,101.3,46,157,46c182.4,0,291.5-148.2,291.5-291.5c0-4-0.1-8-0.2-11.9
		c19.7-14.4,36.6-32,50.2-52.4C500.2,96.9,500.1,95.7,499.4,94.9z"/>
</g>
</svg>
