<svg version="1.1" id="Layer_1" xmlns="http://www.w3.org/2000/svg" xmlns:xlink="http://www.w3.org/1999/xlink" x="0px" y="0px"
	 viewBox="0 0 500 500" style="enable-background:new 0 0 500 500;" xml:space="preserve">
<g id="XMLID_1_">
	<path id="XMLID_807_" class="st0" d="M430.3,288.4c16.6,16.2,34.1,31.4,49,49.3c6.6,7.9,12.8,16.1,17.6,25.3
		c6.7,13.1,0.6,27.4-11.1,28.2H413c-18.8,1.6-33.8-6-46.4-18.8c-10.1-10.3-19.4-21.2-29.1-31.8c-4-4.3-8.1-8.4-13.1-11.7
		c-9.9-6.5-18.6-4.5-24.3,5.9c-5.8,10.5-7.1,22.2-7.7,34c-0.8,17.2-6,21.7-23.2,22.4c-36.8,1.7-71.8-3.8-104.2-22.4
		c-28.6-16.4-50.8-39.5-70.1-65.7c-37.6-51-66.4-107-92.3-164.5c-5.8-13-1.6-19.9,12.7-20.2c23.8-0.5,47.5-0.4,71.3,0
		c9.7,0.1,16.1,5.7,19.8,14.8c12.9,31.6,28.6,61.7,48.3,89.6c5.3,7.4,10.6,14.8,18.3,20.1c8.4,5.8,14.9,3.9,18.9-5.5
		c2.5-6,3.6-12.4,4.2-18.8c1.9-22,2.1-43.9-1.2-65.8c-2-13.7-9.7-22.5-23.4-25.1c-7-1.3-5.9-3.9-2.6-7.9
		c5.9-6.9,11.4-11.1,22.3-11.1h82.3c13,2.6,15.8,8.4,17.6,21.4l0.1,91.4c-0.1,5,2.5,20,11.6,23.4c7.3,2.4,12.1-3.4,16.4-8.1
		c19.7-20.9,33.8-45.6,46.3-71.2c5.6-11.3,10.4-22.9,15-34.6c3.4-8.7,8.8-12.9,18.6-12.7l79.2,0.1c2.3,0,4.7,0,7,0.4
		c13.4,2.3,17,8,12.9,21.1c-6.5,20.5-19.1,37.5-31.5,54.6c-13.2,18.3-27.3,35.9-40.4,54.3C414.4,265.4,415.4,273.9,430.3,288.4
		L430.3,288.4z"/>
</g>
</svg>
