<svg version="1.1" id="Capa_1" xmlns="http://www.w3.org/2000/svg" xmlns:xlink="http://www.w3.org/1999/xlink" x="0px" y="0px"
	 viewBox="0 0 500 500" style="enable-background:new 0 0 500 500;" xml:space="preserve">
<g>
	<g>
		<path class="st0" d="M302.2,47.7v109.9c0,9.5,0.7,16.5,2.2,20.9c2.4,6.9,7.9,10.3,16.5,10.3c9.3,0,18.9-5.8,28.7-17.3v15.3H375
			V47.7h-25.4V154c-5.6,8-10.9,12-15.9,12c-3.3,0-5.3-2-5.9-6.1c-0.2-0.4-0.3-3.6-0.3-9.8V47.7H302.2z"/>
		<path class="st0" d="M244.1,188.9c12.8,0,22.7-4.7,29.6-14.2c5.2-6.9,7.8-17.9,7.8-32.9V92.9c0-14.9-2.6-25.8-7.8-32.6
			C266.8,50.8,257,46,244.1,46c-12.5,0-22.2,4.7-29.3,14.2c-5.2,6.9-7.8,17.8-7.8,32.6v48.8c0,14.9,2.6,25.9,7.8,32.9
			C221.9,184.2,231.7,188.9,244.1,188.9z M232.1,87.9c0-12.8,4-19.2,12-19.2s12,6.4,12,19.2v58.6c0,13-4,19.5-12,19.5
			s-12-6.5-12-19.5V87.9z"/>
		<path class="st0" d="M173,186.9v-75.6L206.8,0h-28.5l-19,73.4L139.5,0h-29.6c5.2,15.6,11.3,33,18.1,52.2
			c8.7,25.7,14.4,45.4,17,59.2V187L173,186.9L173,186.9L173,186.9z"/>
		<path class="st0" d="M433.5,230.7c-8.3-7.4-17.8-11.8-28.6-13.1C370.6,213.9,319,212,250,212s-120.5,1.9-154.6,5.6
			c-11,1.3-20.6,5.7-28.7,13.1c-8.2,7.5-13.6,16.7-16.2,27.6c-4.8,21.6-7.3,54.1-7.3,97.7c0,44.3,2.4,76.8,7.3,97.7
			c2.4,11,7.8,20.2,16,27.6c8.3,7.4,17.8,11.7,28.6,12.8C129.4,498,181,500,250,500s120.6-2,154.9-5.9c10.8-1.1,20.3-5.4,28.5-12.8
			s13.6-16.7,16.2-27.6c4.8-21.6,7.3-54.1,7.3-97.7c0-44.3-2.4-76.8-7.3-97.7C447.1,247.4,441.7,238.2,433.5,230.7z M161.3,286.5
			h-29.9v158.8h-27.9V286.5H74.2v-26.2h87.1L161.3,286.5L161.3,286.5z M236.6,445.3h-24.8v-15.1c-10,11.3-19.5,17-28.5,17
			c-8.6,0-13.9-3.4-16.2-10.3c-1.5-4.5-2.2-11.2-2.2-20.4v-109h24.8V409c0,6,0.1,9.2,0.3,9.8c0.6,3.9,2.5,5.9,5.9,5.9
			c5,0,10.3-3.9,15.9-11.7V307.5h24.8V445.3L236.6,445.3L236.6,445.3z M331.5,404c0,13.6-0.8,22.9-2.5,27.9
			c-3.2,10.2-9.8,15.3-19.8,15.3c-8.9,0-17.6-5.1-25.9-15.3v13.4h-24.8v-185h24.8v60.5c8-10,16.6-15.1,25.9-15.1
			c10,0,16.6,5.2,19.8,15.6c1.7,4.8,2.5,14,2.5,27.6V404z M425.8,381.1h-49.9v24.3c0,12.8,4.3,19.2,12.8,19.2c6.1,0,9.9-3.3,11.2-10
			c0.4-1.9,0.6-7.5,0.6-17h25.4v3.6c0,9.1-0.2,14.5-0.6,16.2c-0.6,5-2.5,10-5.9,15.1c-6.7,9.9-16.7,14.8-30.1,14.8
			c-12.8,0-22.9-4.7-30.1-14.2c-5.4-6.9-8.1-17.7-8.1-32.4v-48.3c0-14.7,2.6-25.5,7.8-32.4c7.3-9.5,17.2-14.2,29.9-14.2
			c12.5,0,22.3,4.7,29.6,14.2c5,6.9,7.5,17.7,7.5,32.4L425.8,381.1L425.8,381.1L425.8,381.1z"/>
		<path class="st0" d="M388.4,328.4c-8.4,0-12.6,6.3-12.6,19v12.8H401v-12.8C400.9,334.7,396.8,328.4,388.4,328.4z"/>
		<path class="st0" d="M295.8,328.4c-4.3,0-8.5,2-12.6,6.1v84c4.1,4.1,8.3,6.1,12.6,6.1c7.3,0,10.9-6.2,10.9-18.7V347
			C306.6,334.6,303,328.4,295.8,328.4z"/>
	</g>
</g>
</svg>
